<svg xmlns="http://www.w3.org/2000/svg" width="86" height="77" viewBox="0 0 86 77" fill="none">
  <path d="M80.0562 52.9858L84 58.1595H73.6026L70.5551 58.5163L68.5832 58.8731L66.432 59.2299L63.3845 59.7651L60.6955 60.4788L57.8272 61.5492L54.7797 62.798L52.4492 64.4036L49.7603 64.582C48.9237 64.5226 47.1788 64.4393 46.892 64.582C46.6052 64.7247 45.0994 64.8794 44.3823 64.9388L41.6933 65.6524L33.2678 68.5069L25.3801 72.2534L18.0302 75.9999L1 49.0609H1.89633L2.61339 48.7041M80.0562 52.9858V50.1313M80.0562 52.9858L80.4147 54.9482L81.311 56.3755L68.2246 56.5539L65.1771 56.9107L62.1296 57.4459C62.1296 57.4459 59.9784 57.9811 58.5443 58.8731C57.1102 59.7651 55.3175 60.4788 55.3175 60.4788C53.1828 60.3232 52.129 60.3057 50.6566 60.4788L48.6847 61.1924C48.1439 61.5199 47.0332 62.5817 46.892 62.9764C46.7845 63.2771 45.8164 62.798 44.3823 62.9764C42.9482 63.1548 39.1836 64.582 39.1836 64.582L30.9374 67.6149L18.7473 73.8591M80.0562 50.1313L56.2138 32.8262L54.0626 33.3614H52.0907C52.0907 33.3614 49.5078 33.392 47.9676 33.183L44.5616 33.0046C44.5616 33.0046 41.8726 32.7548 40.6177 33.0046C39.3629 33.2543 39.0043 33.3614 39.0043 33.3614L36.6739 33.8966L35.2397 34.4318L32.9093 36.0374L30.9374 38.3567L30.5788 38.8919M80.0562 50.1313L78.2635 50.4882L75.216 50.845L72.527 51.2018L69.4795 51.5586L65.8942 52.2722L62.1296 52.9858L60.6955 53.3426L57.2894 54.413L55.3175 55.1266L53.7041 55.8403L52.4492 56.9107L51.1944 58.3379L50.2981 60.122M30.5788 38.8919L28.9654 37.6431C28.9654 37.6431 28.0691 36.9295 27.3521 36.5727C26.635 36.2158 26.2765 36.2158 25.3801 36.0374C24.4838 35.859 23.946 35.859 23.0497 35.859C22.1533 35.859 20.3607 35.859 19.2851 36.0374C18.2095 36.2158 13.7279 38.3567 13.7279 38.3567L11.0389 39.9623L8.17063 41.9248L5.48164 43.1736L2.97192 44.244M30.5788 38.8919L40.2592 49.0609L50.2981 60.122M2.61339 48.7041V48.1689L2.97192 46.5633V45.4928V44.244M2.61339 48.7041L18.7473 73.8591M18.7473 73.8591L19.1058 72.2534V70.4694V68.8637L18.9266 67.2581M2.97192 44.244L18.9266 67.2581M18.9266 67.2581L20.7192 66.5445L22.6911 65.6524L24.8423 64.582L27.7106 62.9764L29.6825 62.0844L31.6544 61.1924L33.2678 60.4788L35.5983 59.5867L38.2873 58.8731L40.9762 58.3379H43.6652H45.9957L47.7883 58.8731C48.0871 59.111 48.7922 59.5867 49.2225 59.5867L50.2981 60.122" stroke="black"/>
  <path d="M37.6036 36.7913C38.1474 36.0882 39.2691 36.3873 39.3868 37.2668L39.4761 37.9339C39.5257 38.3049 39.7788 38.6166 40.1318 38.7416L40.7619 38.9646C41.6013 39.2618 41.6601 40.425 40.8551 40.8085L40.2592 41.0924C39.9193 41.2544 39.6987 41.5929 39.6883 41.9687L39.6699 42.6305C39.6452 43.5187 38.5593 43.9378 37.9454 43.2959L37.4777 42.8069C37.2198 42.5371 36.8324 42.4338 36.4735 42.5391L35.8227 42.7299C34.9687 42.9803 34.2388 42.077 34.6636 41.2955L34.9802 40.7132C35.16 40.3826 35.139 39.9797 34.926 39.6703L34.5526 39.1279C34.0482 38.3952 34.6835 37.4171 35.5598 37.5774L36.2175 37.6978C36.586 37.7652 36.9618 37.6212 37.1911 37.3246L37.6036 36.7913Z" fill="#101828"/>
  <path d="M50.0615 15.7097C50.6595 15.0516 51.7544 15.4383 51.8018 16.3243L52.1182 22.242C52.1382 22.6157 52.3658 22.9464 52.7079 23.0989L58.1365 25.518C58.9497 25.8803 58.9162 27.0441 58.0833 27.363L52.5388 29.4862C52.1872 29.6208 51.9405 29.9407 51.9002 30.3143L51.2663 36.1968C51.1711 37.0802 50.055 37.4121 49.494 36.7239L45.7417 32.1199C45.5058 31.8306 45.1277 31.697 44.7613 31.7737L38.9322 32.9939C38.0608 33.1764 37.4046 32.2185 37.8902 31.473L41.124 26.5086C41.3293 26.1934 41.3405 25.7902 41.1528 25.4651L38.1933 20.3388C37.7487 19.5687 38.4598 18.6442 39.3206 18.8731L45.0672 20.4005C45.4293 20.4968 45.8154 20.3828 46.0676 20.1053L50.0615 15.7097Z" fill="#101828"/>
  <path d="M65.1704 4.32812C65.7683 3.67002 66.8633 4.05671 66.9106 4.94271L67.0311 7.19616C67.0511 7.56984 67.2787 7.90054 67.6208 8.05298L69.6842 8.97246C70.4974 9.33484 70.4638 10.4986 69.6309 10.8175L67.5278 11.6229C67.1761 11.7575 66.9294 12.0775 66.8892 12.451L66.6484 14.685C66.5532 15.5684 65.4371 15.9003 64.8761 15.212L63.4465 13.458C63.2107 13.1686 62.8325 13.0351 62.4662 13.1118L60.2453 13.5767C59.3739 13.7591 58.7177 12.8012 59.2033 12.0557L60.4314 10.1704C60.6367 9.85518 60.6478 9.45205 60.4601 9.12694L59.3375 7.18235C58.8929 6.41227 59.604 5.48779 60.4648 5.71661L62.649 6.29719C63.0112 6.39345 63.3973 6.27949 63.6495 6.00193L65.1704 4.32812Z" fill="#101828"/>
</svg>